# xmcd
#
# Track frame offsets: 
#        150
#        9990
#        33075
#        47357
#        64665
#        80360
#        102177
#        118687
#        141870
#        161470
#        183215
#        193645
#        210737
#        231002
#
# Disc length: 3424 seconds
#
# Revision: 15
# Processed by: cddbd v1.5.2PL0 Copyright (c) Steve Scherf et al.
# Submitted via: ExactAudioCopyFreeDBPlugin 1.0
#
DISCID=a80d5e0e
DTITLE=Christopher Franke - Enchanting Nature
DYEAR=1994
DGENRE=New Age
TTITLE0=Gate of the Shimmering Cave
TTITLE1=Song of the Creek
TTITLE2=Dancing Over Pools
TTITLE3=Celtic Mist
TTITLE4=When the Sun Loves Trees
TTITLE5=Silence of the Eclipse
TTITLE6=Stream Garden
TTITLE7=Purple Waves
TTITLE8=Malibu Trail
TTITLE9=Beach Park
TTITLE10=Big Sur Romance
TTITLE11=Silent Waves
TTITLE12=Woodland Watercolors
TTITLE13=Inside the Cave
EXTD=
EXTT0=
EXTT1=
EXTT2=
EXTT3=
EXTT4=
EXTT5=
EXTT6=
EXTT7=
EXTT8=
EXTT9=
EXTT10=
EXTT11=
EXTT12=
EXTT13=
PLAYORDER=
